<?xml version="1.0" encoding="utf-8"?>
<?xml-stylesheet type="text/xsl" href="rss1.xsl"?>
<rss version="2.0" xmlns:atom="http://www.w3.org/2005/Atom" xmlns:content="http://purl.org/rss/1.0/modules/content/" xmlns:dc="http://purl.org/dc/elements/1.1/" xmlns:media="http://search.yahoo.com/mrss/">
<channel>
 <title>Getty</title>
 <link>http://www.gettyimg.com/</link>
 <atom:link href="http://www.gettyimg.com/" rel="self" type="application/rss+xml" />

 
                <item>
                <title><![CDATA[【Off-Topic】Apple.Event.April.20.2021.2160p.AAPL.WEB-DL.AAC2.0.H.264-Samuel]]></title>
                <link><![CDATA[https://sharemania.us/threads/apple-event-april-20-2021-2160p-aapl-web-dl-aac2-0-h-264-samuel.222893/]]></link>
                <description><![CDATA[<article>
<blockquote class="messageText SelectQuoteContainer ugc baseHtml">
<div style="text-align: center"><b><span style="font-size: 26px">Apple Event</span><br>
<span style="font-size: 18px">April 20, 2021</span></b><br>
<img src="https://i.imgur.com/ALJRZb2.png" class="bbCodeImage LbImage" alt="[​IMG]" data-url="https://i.imgur.com/ALJRZb2.png" style=""><br>
<br>
2021 • 1 hr 1 min • No Rating • 4K • SDR • AAC<br>
<br>
<div class="bbCodeBlock bbCodeQuote">
<aside>
<blockquote class="quoteContainer"><div class="quote"><b><span style="font-size: 15px"><span style="font-family: 'Arial'">Description</span></span></b><br>
Watch the special Apple Event and learn about the new iMac, iPad Pro, and more.</div><div class="quoteExpand">Click to expand...</div></blockquote>
</aside>
</div>
<div class="bbCodeBlock bbCodeQuote">
<aside>
<blockquote class="quoteContainer"><div class="quote"><span style="font-family: 'Arial'"><span style="font-size: 15px"><b>Accessibility</b></span></span><br>
<b>Audio languages:</b> English, English (Audio Description)<br>
<b>Subtitles:</b> English (United States) CC, German, Spanish (Latin American), French, Japanese, Korean, Russian, Simplified Chinese</div><div class="quoteExpand">Click to expand...</div></blockquote>
</aside>
</div>
<div class="bbCodeBlock bbCodeQuote">
<aside>
<blockquote class="quoteContainer"><div class="quote"><span style="font-family: 'Arial'"><span style="font-size: 15px"><b>More Information</b></span></span><br>
<b><i><span style="text-decoration: underline">Runtime</span></i></b><br>
1 hr 1 min</div><div class="quoteExpand">Click to expand...</div></blockquote>
</aside>
</div>
<div class="bbCodeBlock bbCodeQuote">
<aside>
<blockquote class="quoteContainer"><div class="quote"><b><span style="font-size: 15px"><span style="font-family: 'Arial'">Source</span></span></b><br>
<img src="https://i.imgur.com/y8r7oXj.png" class="bbCodeImage LbImage" alt="[​IMG]" data-url="https://i.imgur.com/y8r7oXj.png" style=""></div><div class="quoteExpand">Click to expand...</div></blockquote>
</aside>
</div>
<div class="bbCodeBlock bbCodeQuote">
<aside>
<blockquote class="quoteContainer"><div class="quote"><b><span style="font-size: 15px">Release Name</span></b><br>
Apple.Event.April.20.2021.2160p.AAPL.WEB-DL.AAC2.0.H.264-Samuel</div><div class="quoteExpand">Click to expand...</div></blockquote>
</aside>
</div>
<div class="ToggleTriggerAnchor bbCodeSpoilerContainer">
<button type="button" class="button bbCodeSpoilerButton ToggleTrigger Tooltip JsOnly" data-target="> .SpoilerTarget"><span>Spoiler: <span class="SpoilerTitle">Media Information</span></span></button>
<div class="SpoilerTarget bbCodeSpoilerText">General<br>
Complete name : Apple.Event.April.20.2021.2160p.AAPL.WEB-DL.AAC2.0.H.264-Samuel.mkv<br>
Format : Matroska<br>
Format version : Version 4<br>
File size : 4.24 GiB<br>
Duration : 1 h 1 min<br>
Overall bit rate : 9 936 kb/s<br>
Frame rate : 29.970 FPS<br>
Encoded date : 2023-06-18 11:05:18 UTC<br>
Writing application : mkvmerge v77.0 ('Elemental') 64-bit<br>
Writing library : libebml v1.4.4 + libmatroska v1.7.1<br>
<br>
Video<br>
ID : 1<br>
Format : HEVC<br>
Format/Info : High Efficiency Video Coding<br>
Format profile : Main@L5@High<br>
Codec ID : V_MPEGH/ISO/HEVC<br>
Duration : 1 h 1 min<br>
Bit rate : 9 675 kb/s<br>
Width : 3 840 pixels<br>
Height : 2 160 pixels<br>
Display aspect ratio : 16:9<br>
Frame rate mode : Constant<br>
Frame rate : 29.970 (30000/1001) FPS<br>
Color space : YUV<br>
Chroma subsampling : 4:2:0<br>
Bit depth : 8 bits<br>
Bits/(Pixel*Frame) : 0.039<br>
Stream size : 4.13 GiB (97%)<br>
Default : Yes<br>
Forced : No<br>
Color range : Limited<br>
Color primaries : BT.709<br>
Transfer characteristics : BT.709<br>
Matrix coefficients : BT.709<br>
<br>
Audio #1<br>
ID : 2<br>
Format : AAC LC<br>
Format/Info : Advanced Audio Codec Low Complexity<br>
Codec ID : A_AAC-2<br>
Duration : 1 h 1 min<br>
Bit rate : 128 kb/s<br>
Channel(s) : 2 channels<br>
Channel layout : L R<br>
Sampling rate : 48.0 kHz<br>
Frame rate : 46.875 FPS (1024 SPF)<br>
Compression mode : Lossy<br>
Stream size : 55.9 MiB (1%)<br>
Language : English<br>
Default : Yes<br>
Forced : No<br>
<br>
Audio #2<br>
ID : 3<br>
Format : AAC LC<br>
Format/Info : Advanced Audio Codec Low Complexity<br>
Codec ID : A_AAC-2<br>
Duration : 1 h 1 min<br>
Bit rate : 128 kb/s<br>
Channel(s) : 2 channels<br>
Channel layout : L R<br>
Sampling rate : 48.0 kHz<br>
Frame rate : 46.875 FPS (1024 SPF)<br>
Compression mode : Lossy<br>
Stream size : 55.9 MiB (1%)<br>
Title : Audio Description<br>
Language : English<br>
Default : Yes<br>
Forced : No<br>
<br>
Text #1<br>
ID : 4<br>
Format : UTF-8<br>
Codec ID : S_TEXT/UTF8<br>
Codec ID/Info : UTF-8 Plain Text<br>
Duration : 1 h 0 min<br>
Bit rate : 106 b/s<br>
Frame rate : 0.375 FPS<br>
Count of elements : 1372<br>
Stream size : 47.5 KiB (0%)<br>
Language : English<br>
Default : No<br>
Forced : No<br>
<br>
Text #2<br>
ID : 5<br>
Format : UTF-8<br>
Codec ID : S_TEXT/UTF8<br>
Codec ID/Info : UTF-8 Plain Text<br>
Duration : 1 h 0 min<br>
Bit rate : 129 b/s<br>
Frame rate : 0.356 FPS<br>
Count of elements : 1298<br>
Stream size : 57.7 KiB (0%)<br>
Language : German<br>
Default : No<br>
Forced : No<br>
<br>
Text #3<br>
ID : 6<br>
Format : UTF-8<br>
Codec ID : S_TEXT/UTF8<br>
Codec ID/Info : UTF-8 Plain Text<br>
Duration : 1 h 0 min<br>
Bit rate : 115 b/s<br>
Frame rate : 0.353 FPS<br>
Count of elements : 1293<br>
Stream size : 51.6 KiB (0%)<br>
Language : Spanish<br>
Default : No<br>
Forced : No<br>
<br>
Text #4<br>
ID : 7<br>
Format : UTF-8<br>
Codec ID : S_TEXT/UTF8<br>
Codec ID/Info : UTF-8 Plain Text<br>
Duration : 1 h 0 min<br>
Bit rate : 134 b/s<br>
Frame rate : 0.355 FPS<br>
Count of elements : 1298<br>
Stream size : 60.2 KiB (0%)<br>
Language : French<br>
Default : No<br>
Forced : No<br>
<br>
Text #5<br>
ID : 8<br>
Format : UTF-8<br>
Codec ID : S_TEXT/UTF8<br>
Codec ID/Info : UTF-8 Plain Text<br>
Duration : 1 h 1 min<br>
Bit rate : 133 b/s<br>
Frame rate : 0.296 FPS<br>
Count of elements : 1084<br>
Stream size : 59.8 KiB (0%)<br>
Language : Japanese<br>
Default : No<br>
Forced : No<br>
<br>
Text #6<br>
ID : 9<br>
Format : UTF-8<br>
Codec ID : S_TEXT/UTF8<br>
Codec ID/Info : UTF-8 Plain Text<br>
Duration : 1 h 0 min<br>
Bit rate : 118 b/s<br>
Frame rate : 0.340 FPS<br>
Count of elements : 1245<br>
Stream size : 53.0 KiB (0%)<br>
Language : Korean<br>
Default : No<br>
Forced : No<br>
<br>
Text #7<br>
ID : 10<br>
Format : UTF-8<br>
Codec ID : S_TEXT/UTF8<br>
Codec ID/Info : UTF-8 Plain Text<br>
Duration : 1 h 0 min<br>
Bit rate : 172 b/s<br>
Frame rate : 0.358 FPS<br>
Count of elements : 1310<br>
Stream size : 77.2 KiB (0%)<br>
Language : Russian<br>
Default : No<br>
Forced : No<br>
<br>
Text #8<br>
ID : 11<br>
Format : UTF-8<br>
Codec ID : S_TEXT/UTF8<br>
Codec ID/Info : UTF-8 Plain Text<br>
Duration : 1 h 0 min<br>
Bit rate : 88 b/s<br>
Frame rate : 0.353 FPS<br>
Count of elements : 1293<br>
Stream size : 39.5 KiB (0%)<br>
Language : Chinese<br>
Default : No<br>
Forced : No</div>
</div><br>
<b>Screenshots</b><br>
<img src="https://i.imgur.com/ugAd3e9.png" class="bbCodeImage LbImage" alt="[​IMG]" data-url="https://i.imgur.com/ugAd3e9.png" style=""><br>
<br>
<b>Download</b><br>
<div class="bbCodeBlock bbCodeVfcHH HiddenContent">
<div class="attribution type">Hidden Content:</div>
<blockquote>You must reply before you can see the hidden data contained here.</blockquote>
</div></div>
<div class="messageTextEndMarker">&nbsp;</div>
</blockquote>
</article>]]></description>
                <author><![CDATA[Samuel]]></author>
                </item>

                </channel></rss>